<?xml version="1.0" encoding="utf-8"?>
<!-- Generator: Adobe Illustrator 26.4.1, SVG Export Plug-In . SVG Version: 6.00 Build 0)  -->
<svg version="1.1" id="Layer_1" xmlns="http://www.w3.org/2000/svg" xmlns:xlink="http://www.w3.org/1999/xlink" x="0px" y="0px"
	 viewBox="0 0 24 24" style="enable-background:new 0 0 24 24;" xml:space="preserve">
<style type="text/css">
	.st0{fill:none;}
	.st1{fill:#666666;}
</style>
<path class="st0" d="M0,0h24v24H0V0z"/>
<path class="st1" d="M4.8,15.8c-0.8-1.5-0.2-3.4,1.3-4.2l3.5-1.9L8.8,8L5.2,9.9c-2.4,1.3-3.4,4.3-2.1,6.8s4.3,3.4,6.8,2.1l3.5-1.9
	l-0.9-1.7L9,17.1C7.5,17.9,5.6,17.3,4.8,15.8z M8.9,14.7L16,11l-0.9-1.8L8,13L8.9,14.7z M14.1,5.2l-3.5,1.9l0.9,1.7L15,6.9
	c1.5-0.8,3.4-0.2,4.2,1.3c0.8,1.5,0.2,3.4-1.3,4.2l-3.5,1.9l0.9,1.7l3.5-1.9c2.4-1.3,3.4-4.3,2.1-6.8C19.6,4.9,16.5,4,14.1,5.2z"/>
</svg>
